<svg xmlns="http://www.w3.org/2000/svg" xmlns:xlink="http://www.w3.org/1999/xlink" contentStyleType="text/css" data-diagram-type="ACTIVITY" height="1071px" preserveAspectRatio="none" style="width:961px;height:1071px;background:#FFFFFF;" version="1.1" viewBox="0 0 961 1071" width="961px" zoomAndPan="magnify"><defs/><g><ellipse cx="448.0732" cy="20" fill="#222222" rx="10" ry="10" style="stroke:#222222;stroke-width:1;"/><rect fill="#F1F1F1" height="33.9688" rx="12.5" ry="12.5" style="stroke:#181818;stroke-width:0.5;" width="115.6133" x="390.2666" y="50"/><text fill="#000000" font-family="sans-serif" font-size="12" lengthAdjust="spacing" textLength="95.6133" x="400.2666" y="71.1387">Initialize Logger</text><rect fill="#F1F1F1" height="33.9688" rx="12.5" ry="12.5" style="stroke:#181818;stroke-width:0.5;" width="152.5332" x="371.8066" y="103.9688"/><text fill="#000000" font-family="sans-serif" font-size="12" lengthAdjust="spacing" textLength="132.5332" x="381.8066" y="125.1074">Initialize Message Bus</text><rect fill="none" height="142.0938" style="stroke:#000000;stroke-width:1.5;" width="320.1182" x="379.1445" y="147.9375"/><path d="M429.8936,147.9375 L429.8936,157.2344 L419.8936,167.2344 L379.1445,167.2344" fill="none" style="stroke:#000000;stroke-width:1.5;"/><text fill="#000000" font-family="sans-serif" font-size="14" lengthAdjust="spacing" textLength="40.749" x="382.1445" y="161.9326">Setup</text><path d="M527.002,177.2344 L527.002,223.6328 L507.002,227.6328 L527.002,231.6328 L527.002,278.0313 A0,0 0 0 0 527.002,278.0313 L689.2627,278.0313 A0,0 0 0 0 689.2627,278.0313 L689.2627,187.2344 L679.2627,177.2344 L527.002,177.2344 A0,0 0 0 0 527.002,177.2344" fill="#FEFFDD" style="stroke:#181818;stroke-width:0.5;"/><path d="M679.2627,177.2344 L679.2627,187.2344 L689.2627,187.2344 L679.2627,177.2344" fill="#FEFFDD" style="stroke:#181818;stroke-width:0.5;"/><text fill="#000000" font-family="sans-serif" font-size="13" lengthAdjust="spacing" textLength="141.2607" x="533.002" y="194.3013">Devices created with:</text><text fill="#000000" font-family="sans-serif" font-size="13" lengthAdjust="spacing" textLength="27.3076" x="533.002" y="209.4341">- OS</text><text fill="#000000" font-family="sans-serif" font-size="13" lengthAdjust="spacing" textLength="73.9058" x="533.002" y="224.5669">- Scheduler</text><text fill="#000000" font-family="sans-serif" font-size="13" lengthAdjust="spacing" textLength="61.6929" x="533.002" y="239.6997">- Memory</text><text fill="#000000" font-family="sans-serif" font-size="13" lengthAdjust="spacing" textLength="73.4233" x="533.002" y="254.8325">- Processes</text><text fill="#000000" font-family="sans-serif" font-size="13" lengthAdjust="spacing" textLength="73.8994" x="533.002" y="269.9653">- Mailboxes</text><rect fill="#F1F1F1" height="33.9688" rx="12.5" ry="12.5" style="stroke:#181818;stroke-width:0.5;" width="117.8574" x="389.1445" y="210.6484"/><text fill="#000000" font-family="sans-serif" font-size="12" lengthAdjust="spacing" textLength="97.8574" x="399.1445" y="231.7871">Build Simulation</text><rect fill="none" height="82.2656" style="stroke:#000000;stroke-width:1.5;" width="127.4277" x="384.3594" y="300.0313"/><path d="M416.0635,300.0313 L416.0635,309.3281 L406.0635,319.3281 L384.3594,319.3281" fill="none" style="stroke:#000000;stroke-width:1.5;"/><text fill="#000000" font-family="sans-serif" font-size="14" lengthAdjust="spacing" textLength="21.7041" x="387.3594" y="314.0264">CLI</text><rect fill="#F1F1F1" height="33.9688" rx="12.5" ry="12.5" style="stroke:#181818;stroke-width:0.5;" width="107.4277" x="394.3594" y="336.3281"/><text fill="#000000" font-family="sans-serif" font-size="12" lengthAdjust="spacing" textLength="87.4277" x="404.3594" y="357.4668">Enter CLI Loop</text><rect fill="#F1F1F1" height="33.9688" rx="12.5" ry="12.5" style="stroke:#181818;stroke-width:0.5;" width="147.3477" x="374.3994" y="446.2969"/><text fill="#000000" font-family="sans-serif" font-size="12" lengthAdjust="spacing" textLength="127.3477" x="384.3994" y="467.4355">Read User Command</text><rect fill="#555555" height="6" rx="2.5" ry="2.5" style="stroke:#555555;stroke-width:1;" width="912.1465" x="11" y="500.2656"/><rect fill="#F1F1F1" height="33.9688" rx="12.5" ry="12.5" style="stroke:#181818;stroke-width:0.5;" width="105.418" x="51.1895" y="574.668"/><text fill="#000000" font-family="sans-serif" font-size="12" lengthAdjust="spacing" textLength="85.418" x="61.1895" y="595.8066">Advance Time</text><rect fill="#F1F1F1" height="33.9688" rx="12.5" ry="12.5" style="stroke:#181818;stroke-width:0.5;" width="65.0879" x="71.3545" y="628.6367"/><text fill="#000000" font-family="sans-serif" font-size="12" lengthAdjust="spacing" textLength="45.0879" x="81.3545" y="649.7754">Tick OS</text><rect fill="#F1F1F1" height="33.9688" rx="12.5" ry="12.5" style="stroke:#181818;stroke-width:0.5;" width="117.3066" x="45.2451" y="697.6055"/><text fill="#000000" font-family="sans-serif" font-size="12" lengthAdjust="spacing" textLength="97.3066" x="55.2451" y="718.7441">Migration Check</text><rect fill="#F1F1F1" height="33.9688" rx="12.5" ry="12.5" style="stroke:#181818;stroke-width:0.5;" width="161.7969" x="23" y="762.1719"/><text fill="#000000" font-family="sans-serif" font-size="12" lengthAdjust="spacing" textLength="141.7969" x="33" y="783.3105">Failure/Recovery Check</text><rect fill="#F1F1F1" height="33.9688" rx="12.5" ry="12.5" style="stroke:#181818;stroke-width:0.5;" width="69.2773" x="69.2598" y="816.1406"/><text fill="#000000" font-family="sans-serif" font-size="12" lengthAdjust="spacing" textLength="49.2773" x="79.2598" y="837.2793">Cleanup</text><polygon fill="#F1F1F1" points="89.0823,526.2656,118.7146,526.2656,130.7146,538.2656,118.7146,550.2656,89.0823,550.2656,77.0823,538.2656,89.0823,526.2656" style="stroke:#181818;stroke-width:0.5;"/><text fill="#000000" font-family="sans-serif" font-size="11" lengthAdjust="spacing" textLength="19.0083" x="107.8984" y="560.4761">yes</text><text fill="#000000" font-family="sans-serif" font-size="11" lengthAdjust="spacing" textLength="29.6323" x="89.0823" y="542.0737">step?</text><polygon fill="#F1F1F1" points="103.8984,870.1094,115.8984,882.1094,103.8984,894.1094,91.8984,882.1094,103.8984,870.1094" style="stroke:#181818;stroke-width:0.5;"/><rect fill="#F1F1F1" height="33.9688" rx="12.5" ry="12.5" style="stroke:#181818;stroke-width:0.5;" width="131.9551" x="208.7969" y="697.6055"/><text fill="#000000" font-family="sans-serif" font-size="12" lengthAdjust="spacing" textLength="111.9551" x="218.7969" y="718.7441">Print System State</text><polygon fill="#F1F1F1" points="257.9226,649.2031,291.6262,649.2031,303.6262,661.2031,291.6262,673.2031,257.9226,673.2031,245.9226,661.2031,257.9226,649.2031" style="stroke:#181818;stroke-width:0.5;"/><text fill="#000000" font-family="sans-serif" font-size="11" lengthAdjust="spacing" textLength="19.0083" x="278.7744" y="683.4136">yes</text><text fill="#000000" font-family="sans-serif" font-size="11" lengthAdjust="spacing" textLength="33.7036" x="257.9226" y="665.0112">state?</text><polygon fill="#F1F1F1" points="274.7744,751.5742,286.7744,763.5742,274.7744,775.5742,262.7744,763.5742,274.7744,751.5742" style="stroke:#181818;stroke-width:0.5;"/><rect fill="#F1F1F1" height="33.9688" rx="12.5" ry="12.5" style="stroke:#181818;stroke-width:0.5;" width="134.9785" x="364.752" y="697.6055"/><text fill="#000000" font-family="sans-serif" font-size="12" lengthAdjust="spacing" textLength="114.9785" x="374.752" y="718.7441">Create New Device</text><polygon fill="#F1F1F1" points="406.8547,649.2031,457.6277,649.2031,469.6277,661.2031,457.6277,673.2031,406.8547,673.2031,394.8547,661.2031,406.8547,649.2031" style="stroke:#181818;stroke-width:0.5;"/><text fill="#000000" font-family="sans-serif" font-size="11" lengthAdjust="spacing" textLength="19.0083" x="436.2412" y="683.4136">yes</text><text fill="#000000" font-family="sans-serif" font-size="11" lengthAdjust="spacing" textLength="50.7729" x="406.8547" y="665.0112">add-dev?</text><polygon fill="#F1F1F1" points="432.2412,751.5742,444.2412,763.5742,432.2412,775.5742,420.2412,763.5742,432.2412,751.5742" style="stroke:#181818;stroke-width:0.5;"/><rect fill="#F1F1F1" height="33.9688" rx="12.5" ry="12.5" style="stroke:#181818;stroke-width:0.5;" width="216.6992" x="559.7305" y="697.6055"/><text fill="#000000" font-family="sans-serif" font-size="12" lengthAdjust="spacing" textLength="196.6992" x="569.7305" y="718.7441">Create Process on Target Device</text><polygon fill="#F1F1F1" points="640.6821,649.2031,695.478,649.2031,707.478,661.2031,695.478,673.2031,640.6821,673.2031,628.6821,661.2031,640.6821,649.2031" style="stroke:#181818;stroke-width:0.5;"/><text fill="#000000" font-family="sans-serif" font-size="11" lengthAdjust="spacing" textLength="19.0083" x="672.0801" y="683.4136">yes</text><text fill="#000000" font-family="sans-serif" font-size="11" lengthAdjust="spacing" textLength="54.7959" x="640.6821" y="665.0112">add-proc?</text><polygon fill="#F1F1F1" points="668.0801,751.5742,680.0801,763.5742,668.0801,775.5742,656.0801,763.5742,668.0801,751.5742" style="stroke:#181818;stroke-width:0.5;"/><rect fill="#F1F1F1" height="33.9688" rx="12.5" ry="12.5" style="stroke:#181818;stroke-width:0.5;" width="96.7168" x="800.4297" y="697.6055"/><text fill="#000000" font-family="sans-serif" font-size="12" lengthAdjust="spacing" textLength="76.7168" x="810.4297" y="718.7441">Clear Screen</text><polygon fill="#F1F1F1" points="832.3015,649.2031,865.2747,649.2031,877.2747,661.2031,865.2747,673.2031,832.3015,673.2031,820.3015,661.2031,832.3015,649.2031" style="stroke:#181818;stroke-width:0.5;"/><text fill="#000000" font-family="sans-serif" font-size="11" lengthAdjust="spacing" textLength="19.0083" x="852.7881" y="683.4136">yes</text><text fill="#000000" font-family="sans-serif" font-size="11" lengthAdjust="spacing" textLength="32.9731" x="832.3015" y="665.0112">clear?</text><polygon fill="#F1F1F1" points="848.7881,751.5742,860.7881,763.5742,848.7881,775.5742,836.7881,763.5742,848.7881,751.5742" style="stroke:#181818;stroke-width:0.5;"/><rect fill="#555555" height="6" rx="2.5" ry="2.5" style="stroke:#555555;stroke-width:1;" width="912.1465" x="11" y="914.1094"/><polygon fill="#F1F1F1" points="448.0732,402.2969,460.0732,414.2969,448.0732,426.2969,436.0732,414.2969,448.0732,402.2969" style="stroke:#181818;stroke-width:0.5;"/><polygon fill="#F1F1F1" points="423.4468,940.1094,472.6997,940.1094,484.6997,952.1094,472.6997,964.1094,423.4468,964.1094,411.4468,952.1094,423.4468,940.1094" style="stroke:#181818;stroke-width:0.5;"/><text fill="#000000" font-family="sans-serif" font-size="11" lengthAdjust="spacing" textLength="49.2529" x="423.4468" y="955.9175">Not exit?</text><rect fill="#F1F1F1" height="33.9688" rx="12.5" ry="12.5" style="stroke:#181818;stroke-width:0.5;" width="79.9121" x="408.1172" y="984.1094"/><text fill="#000000" font-family="sans-serif" font-size="12" lengthAdjust="spacing" textLength="59.9121" x="418.1172" y="1005.248">Shutdown</text><ellipse cx="448.0732" cy="1049.0781" fill="none" rx="11" ry="11" style="stroke:#222222;stroke-width:1;"/><ellipse cx="448.0732" cy="1049.0781" fill="#222222" rx="6" ry="6" style="stroke:#222222;stroke-width:1;"/><line style="stroke:#181818;stroke-width:1;" x1="448.0732" x2="448.0732" y1="30" y2="50"/><polygon fill="#181818" points="444.0732,40,448.0732,50,452.0732,40,448.0732,44" style="stroke:#181818;stroke-width:1;"/><line style="stroke:#181818;stroke-width:1;" x1="448.0732" x2="448.0732" y1="83.9688" y2="103.9688"/><polygon fill="#181818" points="444.0732,93.9688,448.0732,103.9688,452.0732,93.9688,448.0732,97.9688" style="stroke:#181818;stroke-width:1;"/><line style="stroke:#181818;stroke-width:1;" x1="448.0732" x2="448.0732" y1="137.9375" y2="210.6484"/><polygon fill="#181818" points="444.0732,200.6484,448.0732,210.6484,452.0732,200.6484,448.0732,204.6484" style="stroke:#181818;stroke-width:1;"/><line style="stroke:#181818;stroke-width:1;" x1="448.0732" x2="448.0732" y1="244.6172" y2="336.3281"/><polygon fill="#181818" points="444.0732,326.3281,448.0732,336.3281,452.0732,326.3281,448.0732,330.3281" style="stroke:#181818;stroke-width:1;"/><line style="stroke:#181818;stroke-width:1;" x1="103.8984" x2="103.8984" y1="608.6367" y2="628.6367"/><polygon fill="#181818" points="99.8984,618.6367,103.8984,628.6367,107.8984,618.6367,103.8984,622.6367" style="stroke:#181818;stroke-width:1;"/><line style="stroke:#181818;stroke-width:1;" x1="103.8984" x2="103.8984" y1="662.6055" y2="697.6055"/><polygon fill="#181818" points="99.8984,687.6055,103.8984,697.6055,107.8984,687.6055,103.8984,691.6055" style="stroke:#181818;stroke-width:1;"/><line style="stroke:#181818;stroke-width:1;" x1="103.8984" x2="103.8984" y1="731.5742" y2="762.1719"/><polygon fill="#181818" points="99.8984,752.1719,103.8984,762.1719,107.8984,752.1719,103.8984,756.1719" style="stroke:#181818;stroke-width:1;"/><line style="stroke:#181818;stroke-width:1;" x1="103.8984" x2="103.8984" y1="796.1406" y2="816.1406"/><polygon fill="#181818" points="99.8984,806.1406,103.8984,816.1406,107.8984,806.1406,103.8984,810.1406" style="stroke:#181818;stroke-width:1;"/><line style="stroke:#181818;stroke-width:1;" x1="103.8984" x2="103.8984" y1="550.2656" y2="574.668"/><polygon fill="#181818" points="99.8984,564.668,103.8984,574.668,107.8984,564.668,103.8984,568.668" style="stroke:#181818;stroke-width:1;"/><line style="stroke:#181818;stroke-width:1;" x1="130.7146" x2="194.7969" y1="538.2656" y2="538.2656"/><polygon fill="#181818" points="190.7969,704.5898,194.7969,714.5898,198.7969,704.5898,194.7969,708.5898" style="stroke:#181818;stroke-width:1;"/><line style="stroke:#181818;stroke-width:1;" x1="194.7969" x2="194.7969" y1="538.2656" y2="882.1094"/><line style="stroke:#181818;stroke-width:1;" x1="194.7969" x2="115.8984" y1="882.1094" y2="882.1094"/><polygon fill="#181818" points="125.8984,878.1094,115.8984,882.1094,125.8984,886.1094,121.8984,882.1094" style="stroke:#181818;stroke-width:1;"/><line style="stroke:#181818;stroke-width:1;" x1="103.8984" x2="103.8984" y1="850.1094" y2="870.1094"/><polygon fill="#181818" points="99.8984,860.1094,103.8984,870.1094,107.8984,860.1094,103.8984,864.1094" style="stroke:#181818;stroke-width:1;"/><line style="stroke:#181818;stroke-width:1;" x1="274.7744" x2="274.7744" y1="673.2031" y2="697.6055"/><polygon fill="#181818" points="270.7744,687.6055,274.7744,697.6055,278.7744,687.6055,274.7744,691.6055" style="stroke:#181818;stroke-width:1;"/><line style="stroke:#181818;stroke-width:1;" x1="303.6262" x2="350.752" y1="661.2031" y2="661.2031"/><polygon fill="#181818" points="346.752,704.5898,350.752,714.5898,354.752,704.5898,350.752,708.5898" style="stroke:#181818;stroke-width:1;"/><line style="stroke:#181818;stroke-width:1;" x1="350.752" x2="350.752" y1="661.2031" y2="763.5742"/><line style="stroke:#181818;stroke-width:1;" x1="350.752" x2="286.7744" y1="763.5742" y2="763.5742"/><polygon fill="#181818" points="296.7744,759.5742,286.7744,763.5742,296.7744,767.5742,292.7744,763.5742" style="stroke:#181818;stroke-width:1;"/><line style="stroke:#181818;stroke-width:1;" x1="274.7744" x2="274.7744" y1="731.5742" y2="751.5742"/><polygon fill="#181818" points="270.7744,741.5742,274.7744,751.5742,278.7744,741.5742,274.7744,745.5742" style="stroke:#181818;stroke-width:1;"/><line style="stroke:#181818;stroke-width:1;" x1="432.2412" x2="432.2412" y1="673.2031" y2="697.6055"/><polygon fill="#181818" points="428.2412,687.6055,432.2412,697.6055,436.2412,687.6055,432.2412,691.6055" style="stroke:#181818;stroke-width:1;"/><line style="stroke:#181818;stroke-width:1;" x1="469.6277" x2="509.7305" y1="661.2031" y2="661.2031"/><polygon fill="#181818" points="505.7305,704.5898,509.7305,714.5898,513.7305,704.5898,509.7305,708.5898" style="stroke:#181818;stroke-width:1;"/><line style="stroke:#181818;stroke-width:1;" x1="509.7305" x2="509.7305" y1="661.2031" y2="763.5742"/><line style="stroke:#181818;stroke-width:1;" x1="509.7305" x2="444.2412" y1="763.5742" y2="763.5742"/><polygon fill="#181818" points="454.2412,759.5742,444.2412,763.5742,454.2412,767.5742,450.2412,763.5742" style="stroke:#181818;stroke-width:1;"/><line style="stroke:#181818;stroke-width:1;" x1="432.2412" x2="432.2412" y1="731.5742" y2="751.5742"/><polygon fill="#181818" points="428.2412,741.5742,432.2412,751.5742,436.2412,741.5742,432.2412,745.5742" style="stroke:#181818;stroke-width:1;"/><line style="stroke:#181818;stroke-width:1;" x1="668.0801" x2="668.0801" y1="673.2031" y2="697.6055"/><polygon fill="#181818" points="664.0801,687.6055,668.0801,697.6055,672.0801,687.6055,668.0801,691.6055" style="stroke:#181818;stroke-width:1;"/><line style="stroke:#181818;stroke-width:1;" x1="707.478" x2="786.4297" y1="661.2031" y2="661.2031"/><polygon fill="#181818" points="782.4297,704.5898,786.4297,714.5898,790.4297,704.5898,786.4297,708.5898" style="stroke:#181818;stroke-width:1;"/><line style="stroke:#181818;stroke-width:1;" x1="786.4297" x2="786.4297" y1="661.2031" y2="763.5742"/><line style="stroke:#181818;stroke-width:1;" x1="786.4297" x2="680.0801" y1="763.5742" y2="763.5742"/><polygon fill="#181818" points="690.0801,759.5742,680.0801,763.5742,690.0801,767.5742,686.0801,763.5742" style="stroke:#181818;stroke-width:1;"/><line style="stroke:#181818;stroke-width:1;" x1="668.0801" x2="668.0801" y1="731.5742" y2="751.5742"/><polygon fill="#181818" points="664.0801,741.5742,668.0801,751.5742,672.0801,741.5742,668.0801,745.5742" style="stroke:#181818;stroke-width:1;"/><line style="stroke:#181818;stroke-width:1;" x1="848.7881" x2="848.7881" y1="673.2031" y2="697.6055"/><polygon fill="#181818" points="844.7881,687.6055,848.7881,697.6055,852.7881,687.6055,848.7881,691.6055" style="stroke:#181818;stroke-width:1;"/><line style="stroke:#181818;stroke-width:1;" x1="877.2747" x2="907.1465" y1="661.2031" y2="661.2031"/><polygon fill="#181818" points="903.1465,704.5898,907.1465,714.5898,911.1465,704.5898,907.1465,708.5898" style="stroke:#181818;stroke-width:1;"/><line style="stroke:#181818;stroke-width:1;" x1="907.1465" x2="907.1465" y1="661.2031" y2="763.5742"/><line style="stroke:#181818;stroke-width:1;" x1="907.1465" x2="860.7881" y1="763.5742" y2="763.5742"/><polygon fill="#181818" points="870.7881,759.5742,860.7881,763.5742,870.7881,767.5742,866.7881,763.5742" style="stroke:#181818;stroke-width:1;"/><line style="stroke:#181818;stroke-width:1;" x1="848.7881" x2="848.7881" y1="731.5742" y2="751.5742"/><polygon fill="#181818" points="844.7881,741.5742,848.7881,751.5742,852.7881,741.5742,848.7881,745.5742" style="stroke:#181818;stroke-width:1;"/><line style="stroke:#181818;stroke-width:1;" x1="103.8984" x2="103.8984" y1="506.2656" y2="526.2656"/><polygon fill="#181818" points="99.8984,516.2656,103.8984,526.2656,107.8984,516.2656,103.8984,520.2656" style="stroke:#181818;stroke-width:1;"/><line style="stroke:#181818;stroke-width:1;" x1="274.7744" x2="274.7744" y1="506.2656" y2="649.2031"/><polygon fill="#181818" points="270.7744,639.2031,274.7744,649.2031,278.7744,639.2031,274.7744,643.2031" style="stroke:#181818;stroke-width:1;"/><line style="stroke:#181818;stroke-width:1;" x1="432.2412" x2="432.2412" y1="506.2656" y2="649.2031"/><polygon fill="#181818" points="428.2412,639.2031,432.2412,649.2031,436.2412,639.2031,432.2412,643.2031" style="stroke:#181818;stroke-width:1;"/><line style="stroke:#181818;stroke-width:1;" x1="668.0801" x2="668.0801" y1="506.2656" y2="649.2031"/><polygon fill="#181818" points="664.0801,639.2031,668.0801,649.2031,672.0801,639.2031,668.0801,643.2031" style="stroke:#181818;stroke-width:1;"/><line style="stroke:#181818;stroke-width:1;" x1="848.7881" x2="848.7881" y1="506.2656" y2="649.2031"/><polygon fill="#181818" points="844.7881,639.2031,848.7881,649.2031,852.7881,639.2031,848.7881,643.2031" style="stroke:#181818;stroke-width:1;"/><line style="stroke:#181818;stroke-width:1;" x1="103.8984" x2="103.8984" y1="894.1094" y2="914.1094"/><polygon fill="#181818" points="99.8984,904.1094,103.8984,914.1094,107.8984,904.1094,103.8984,908.1094" style="stroke:#181818;stroke-width:1;"/><line style="stroke:#181818;stroke-width:1;" x1="274.7744" x2="274.7744" y1="775.5742" y2="914.1094"/><polygon fill="#181818" points="270.7744,904.1094,274.7744,914.1094,278.7744,904.1094,274.7744,908.1094" style="stroke:#181818;stroke-width:1;"/><line style="stroke:#181818;stroke-width:1;" x1="432.2412" x2="432.2412" y1="775.5742" y2="914.1094"/><polygon fill="#181818" points="428.2412,904.1094,432.2412,914.1094,436.2412,904.1094,432.2412,908.1094" style="stroke:#181818;stroke-width:1;"/><line style="stroke:#181818;stroke-width:1;" x1="668.0801" x2="668.0801" y1="775.5742" y2="914.1094"/><polygon fill="#181818" points="664.0801,904.1094,668.0801,914.1094,672.0801,904.1094,668.0801,908.1094" style="stroke:#181818;stroke-width:1;"/><line style="stroke:#181818;stroke-width:1;" x1="848.7881" x2="848.7881" y1="775.5742" y2="914.1094"/><polygon fill="#181818" points="844.7881,904.1094,848.7881,914.1094,852.7881,904.1094,848.7881,908.1094" style="stroke:#181818;stroke-width:1;"/><line style="stroke:#181818;stroke-width:1;" x1="448.0732" x2="448.0732" y1="480.2656" y2="500.2656"/><polygon fill="#181818" points="444.0732,490.2656,448.0732,500.2656,452.0732,490.2656,448.0732,494.2656" style="stroke:#181818;stroke-width:1;"/><line style="stroke:#181818;stroke-width:1;" x1="448.0732" x2="448.0732" y1="426.2969" y2="446.2969"/><polygon fill="#181818" points="444.0732,436.2969,448.0732,446.2969,452.0732,436.2969,448.0732,440.2969" style="stroke:#181818;stroke-width:1;"/><line style="stroke:#181818;stroke-width:1;" x1="484.6997" x2="935.1465" y1="952.1094" y2="952.1094"/><polygon fill="#181818" points="931.1465,690.1055,935.1465,680.1055,939.1465,690.1055,935.1465,686.1055" style="stroke:#181818;stroke-width:1;"/><line style="stroke:#181818;stroke-width:1;" x1="935.1465" x2="935.1465" y1="414.2969" y2="952.1094"/><line style="stroke:#181818;stroke-width:1;" x1="935.1465" x2="460.0732" y1="414.2969" y2="414.2969"/><polygon fill="#181818" points="470.0732,410.2969,460.0732,414.2969,470.0732,418.2969,466.0732,414.2969" style="stroke:#181818;stroke-width:1;"/><line style="stroke:#181818;stroke-width:1;" x1="448.0732" x2="448.0732" y1="920.1094" y2="940.1094"/><polygon fill="#181818" points="444.0732,930.1094,448.0732,940.1094,452.0732,930.1094,448.0732,934.1094" style="stroke:#181818;stroke-width:1;"/><line style="stroke:#181818;stroke-width:1;" x1="448.0732" x2="448.0732" y1="370.2969" y2="402.2969"/><polygon fill="#181818" points="444.0732,392.2969,448.0732,402.2969,452.0732,392.2969,448.0732,396.2969" style="stroke:#181818;stroke-width:1;"/><line style="stroke:#181818;stroke-width:1;" x1="448.0732" x2="448.0732" y1="964.1094" y2="984.1094"/><polygon fill="#181818" points="444.0732,974.1094,448.0732,984.1094,452.0732,974.1094,448.0732,978.1094" style="stroke:#181818;stroke-width:1;"/><line style="stroke:#181818;stroke-width:1;" x1="448.0732" x2="448.0732" y1="1018.0781" y2="1038.0781"/><polygon fill="#181818" points="444.0732,1028.0781,448.0732,1038.0781,452.0732,1028.0781,448.0732,1032.0781" style="stroke:#181818;stroke-width:1;"/><!--SRC=[bLF1Jkim4BpdA_RO7j2xDmS4VGy9gGL4oWUOU9gicjZHscafY7zdOm8FAbHKdxmxczcTzIH48p7BPjUE8vk6dq4BNrMG_5jkYH1C1RhiGvvbdNwZa7TK8FOTlMIaPtRPSsEfuBPlp83cAUry10bNTKpXNsovHA1IO28ixJZMiuISqMqnNegoXkqRo1WlqNhPZy6TU2K821-WuURHFuqnd4qjizUlSyuNrnzJ_dCHaX8Bxxjyg1DqEimxV0zZwI4C9RvjZREgTm3MNZRfCXnUqoH4TETJYZKSJVO8qqyqyLpOhN4bQCKjyk_GYikDQZt8BhaIypviZN9pW5wfo5xmvnwbtqBsFnRD6nZNT_-pkWnUVuvFfZBi3aJe8nnHSIVi8XLx5TjICHIVG6wiFRFO7g6V9nFG3NQZBqvaxzGAlzEFXY5TxSf8XNXwir8tAySw3RZQLW3t4-tWokIWqMkqgxa1JMvy93nnF9_gFrZKVRH-fmGX-kuD]--></g></svg>